<svg xmlns="http://www.w3.org/2000/svg" xmlns:xlink="http://www.w3.org/1999/xlink" width="256" zoomAndPan="magnify" viewBox="0 0 192 191.999996" height="256" preserveAspectRatio="xMidYMid meet" version="1.0"><path fill="#606bff" d="M 156 24 L 138 24 L 138 18 C 138 17.605469 137.960938 17.214844 137.882812 16.828125 C 137.808594 16.441406 137.695312 16.066406 137.542969 15.703125 C 137.390625 15.339844 137.207031 14.996094 136.988281 14.667969 C 136.769531 14.339844 136.519531 14.035156 136.242188 13.757812 C 135.964844 13.480469 135.660156 13.230469 135.332031 13.011719 C 135.003906 12.792969 134.660156 12.609375 134.296875 12.457031 C 133.933594 12.304688 133.558594 12.191406 133.171875 12.117188 C 132.785156 12.039062 132.394531 12 132 12 C 131.605469 12 131.214844 12.039062 130.828125 12.117188 C 130.441406 12.191406 130.066406 12.304688 129.703125 12.457031 C 129.339844 12.609375 128.992188 12.792969 128.667969 13.011719 C 128.339844 13.230469 128.035156 13.480469 127.757812 13.757812 C 127.480469 14.035156 127.230469 14.339844 127.011719 14.667969 C 126.792969 14.996094 126.609375 15.339844 126.457031 15.703125 C 126.304688 16.066406 126.191406 16.441406 126.117188 16.828125 C 126.039062 17.214844 126 17.605469 126 18 L 126 24 L 66 24 L 66 18 C 66 17.605469 65.960938 17.214844 65.882812 16.828125 C 65.808594 16.441406 65.695312 16.066406 65.542969 15.703125 C 65.390625 15.339844 65.207031 14.996094 64.988281 14.667969 C 64.769531 14.339844 64.519531 14.035156 64.242188 13.757812 C 63.964844 13.480469 63.660156 13.230469 63.332031 13.011719 C 63.003906 12.792969 62.660156 12.609375 62.296875 12.457031 C 61.933594 12.304688 61.558594 12.191406 61.171875 12.117188 C 60.785156 12.039062 60.394531 12 60 12 C 59.605469 12 59.214844 12.039062 58.828125 12.117188 C 58.441406 12.191406 58.066406 12.304688 57.703125 12.457031 C 57.339844 12.609375 56.992188 12.792969 56.667969 13.011719 C 56.339844 13.230469 56.035156 13.480469 55.757812 13.757812 C 55.480469 14.035156 55.230469 14.339844 55.011719 14.667969 C 54.792969 14.996094 54.609375 15.339844 54.457031 15.703125 C 54.304688 16.066406 54.191406 16.441406 54.117188 16.828125 C 54.039062 17.214844 54 17.605469 54 18 L 54 24 L 36 24 C 35.210938 24 34.433594 24.078125 33.660156 24.230469 C 32.886719 24.382812 32.136719 24.613281 31.40625 24.914062 C 30.679688 25.214844 29.988281 25.585938 29.332031 26.023438 C 28.679688 26.460938 28.070312 26.957031 27.515625 27.515625 C 26.957031 28.070312 26.460938 28.679688 26.023438 29.332031 C 25.585938 29.988281 25.214844 30.679688 24.914062 31.40625 C 24.613281 32.136719 24.382812 32.886719 24.230469 33.660156 C 24.078125 34.433594 24 35.210938 24 36 L 24 156 C 24 156.789062 24.078125 157.566406 24.230469 158.339844 C 24.382812 159.113281 24.613281 159.863281 24.914062 160.59375 C 25.214844 161.320312 25.585938 162.011719 26.023438 162.667969 C 26.460938 163.320312 26.957031 163.929688 27.515625 164.484375 C 28.070312 165.042969 28.679688 165.539062 29.332031 165.976562 C 29.988281 166.414062 30.679688 166.785156 31.40625 167.085938 C 32.136719 167.386719 32.886719 167.617188 33.660156 167.769531 C 34.433594 167.921875 35.210938 168 36 168 L 156 168 C 156.789062 168 157.566406 167.921875 158.339844 167.769531 C 159.113281 167.617188 159.863281 167.386719 160.59375 167.085938 C 161.320312 166.785156 162.011719 166.414062 162.667969 165.976562 C 163.320312 165.539062 163.929688 165.042969 164.484375 164.484375 C 165.042969 163.929688 165.539062 163.320312 165.976562 162.667969 C 166.414062 162.011719 166.785156 161.320312 167.085938 160.59375 C 167.386719 159.863281 167.617188 159.113281 167.769531 158.339844 C 167.921875 157.566406 168 156.789062 168 156 L 168 36 C 168 35.210938 167.921875 34.433594 167.769531 33.660156 C 167.617188 32.886719 167.386719 32.136719 167.085938 31.40625 C 166.785156 30.679688 166.414062 29.988281 165.976562 29.332031 C 165.539062 28.679688 165.042969 28.070312 164.484375 27.515625 C 163.929688 26.957031 163.320312 26.460938 162.667969 26.023438 C 162.011719 25.585938 161.320312 25.214844 160.59375 24.914062 C 159.863281 24.613281 159.113281 24.382812 158.339844 24.230469 C 157.566406 24.078125 156.789062 24 156 24 Z M 63 138 C 62.410156 138 61.824219 137.941406 61.246094 137.828125 C 60.664062 137.710938 60.101562 137.542969 59.554688 137.316406 C 59.011719 137.089844 58.492188 136.8125 58 136.484375 C 57.507812 136.15625 57.054688 135.78125 56.636719 135.363281 C 56.21875 134.945312 55.84375 134.492188 55.515625 134 C 55.1875 133.507812 54.910156 132.988281 54.683594 132.445312 C 54.457031 131.898438 54.289062 131.335938 54.171875 130.753906 C 54.058594 130.175781 54 129.589844 54 129 C 54 128.410156 54.058594 127.824219 54.171875 127.246094 C 54.289062 126.664062 54.457031 126.101562 54.683594 125.554688 C 54.910156 125.011719 55.1875 124.492188 55.515625 124 C 55.84375 123.507812 56.21875 123.054688 56.636719 122.636719 C 57.054688 122.21875 57.507812 121.84375 58 121.515625 C 58.492188 121.1875 59.011719 120.910156 59.554688 120.683594 C 60.101562 120.457031 60.664062 120.289062 61.246094 120.171875 C 61.824219 120.058594 62.410156 120 63 120 C 63.589844 120 64.175781 120.058594 64.753906 120.171875 C 65.335938 120.289062 65.898438 120.457031 66.445312 120.683594 C 66.988281 120.910156 67.507812 121.1875 68 121.515625 C 68.492188 121.84375 68.945312 122.21875 69.363281 122.636719 C 69.78125 123.054688 70.15625 123.507812 70.484375 124 C 70.8125 124.492188 71.089844 125.011719 71.316406 125.554688 C 71.542969 126.101562 71.710938 126.664062 71.828125 127.246094 C 71.941406 127.824219 72 128.410156 72 129 C 72 129.589844 71.941406 130.175781 71.828125 130.753906 C 71.710938 131.335938 71.542969 131.898438 71.316406 132.445312 C 71.089844 132.988281 70.8125 133.507812 70.484375 134 C 70.15625 134.492188 69.78125 134.945312 69.363281 135.363281 C 68.945312 135.78125 68.492188 136.15625 68 136.484375 C 67.507812 136.8125 66.988281 137.089844 66.445312 137.316406 C 65.898438 137.542969 65.335938 137.710938 64.753906 137.828125 C 64.175781 137.941406 63.589844 138 63 138 Z M 96 138 C 95.410156 138 94.824219 137.941406 94.246094 137.828125 C 93.664062 137.710938 93.101562 137.542969 92.554688 137.316406 C 92.011719 137.089844 91.492188 136.8125 91 136.484375 C 90.507812 136.15625 90.054688 135.78125 89.636719 135.363281 C 89.21875 134.945312 88.84375 134.492188 88.515625 134 C 88.1875 133.507812 87.910156 132.988281 87.683594 132.445312 C 87.457031 131.898438 87.289062 131.335938 87.171875 130.753906 C 87.058594 130.175781 87 129.589844 87 129 C 87 128.410156 87.058594 127.824219 87.171875 127.246094 C 87.289062 126.664062 87.457031 126.101562 87.683594 125.554688 C 87.910156 125.011719 88.1875 124.492188 88.515625 124 C 88.84375 123.507812 89.21875 123.054688 89.636719 122.636719 C 90.054688 122.21875 90.507812 121.84375 91 121.515625 C 91.492188 121.1875 92.011719 120.910156 92.554688 120.683594 C 93.101562 120.457031 93.664062 120.289062 94.246094 120.171875 C 94.824219 120.058594 95.410156 120 96 120 C 96.589844 120 97.175781 120.058594 97.753906 120.171875 C 98.335938 120.289062 98.898438 120.457031 99.445312 120.683594 C 99.988281 120.910156 100.507812 121.1875 101 121.515625 C 101.492188 121.84375 101.945312 122.21875 102.363281 122.636719 C 102.78125 123.054688 103.15625 123.507812 103.484375 124 C 103.8125 124.492188 104.089844 125.011719 104.316406 125.554688 C 104.542969 126.101562 104.710938 126.664062 104.828125 127.246094 C 104.941406 127.824219 105 128.410156 105 129 C 105 129.589844 104.941406 130.175781 104.828125 130.753906 C 104.710938 131.335938 104.542969 131.898438 104.316406 132.445312 C 104.089844 132.988281 103.8125 133.507812 103.484375 134 C 103.15625 134.492188 102.78125 134.945312 102.363281 135.363281 C 101.945312 135.78125 101.492188 136.15625 101 136.484375 C 100.507812 136.8125 99.988281 137.089844 99.445312 137.316406 C 98.898438 137.542969 98.335938 137.710938 97.753906 137.828125 C 97.175781 137.941406 96.589844 138 96 138 Z M 96 108 C 95.410156 108 94.824219 107.941406 94.246094 107.828125 C 93.664062 107.710938 93.101562 107.542969 92.554688 107.316406 C 92.011719 107.089844 91.492188 106.8125 91 106.484375 C 90.507812 106.15625 90.054688 105.78125 89.636719 105.363281 C 89.21875 104.945312 88.84375 104.492188 88.515625 104 C 88.1875 103.507812 87.910156 102.988281 87.683594 102.445312 C 87.457031 101.898438 87.289062 101.335938 87.171875 100.753906 C 87.058594 100.175781 87 99.589844 87 99 C 87 98.410156 87.058594 97.824219 87.171875 97.246094 C 87.289062 96.664062 87.457031 96.101562 87.683594 95.554688 C 87.910156 95.011719 88.1875 94.492188 88.515625 94 C 88.84375 93.507812 89.21875 93.054688 89.636719 92.636719 C 90.054688 92.21875 90.507812 91.84375 91 91.515625 C 91.492188 91.1875 92.011719 90.910156 92.554688 90.683594 C 93.101562 90.457031 93.664062 90.289062 94.246094 90.171875 C 94.824219 90.058594 95.410156 90 96 90 C 96.589844 90 97.175781 90.058594 97.753906 90.171875 C 98.335938 90.289062 98.898438 90.457031 99.445312 90.683594 C 99.988281 90.910156 100.507812 91.1875 101 91.515625 C 101.492188 91.84375 101.945312 92.21875 102.363281 92.636719 C 102.78125 93.054688 103.15625 93.507812 103.484375 94 C 103.8125 94.492188 104.089844 95.011719 104.316406 95.554688 C 104.542969 96.101562 104.710938 96.664062 104.828125 97.246094 C 104.941406 97.824219 105 98.410156 105 99 C 105 99.589844 104.941406 100.175781 104.828125 100.753906 C 104.710938 101.335938 104.542969 101.898438 104.316406 102.445312 C 104.089844 102.988281 103.8125 103.507812 103.484375 104 C 103.15625 104.492188 102.78125 104.945312 102.363281 105.363281 C 101.945312 105.78125 101.492188 106.15625 101 106.484375 C 100.507812 106.8125 99.988281 107.089844 99.445312 107.316406 C 98.898438 107.542969 98.335938 107.710938 97.753906 107.828125 C 97.175781 107.941406 96.589844 108 96 108 Z M 129 138 C 128.410156 138 127.824219 137.941406 127.246094 137.828125 C 126.664062 137.710938 126.101562 137.542969 125.554688 137.316406 C 125.011719 137.089844 124.492188 136.8125 124 136.484375 C 123.507812 136.15625 123.054688 135.78125 122.636719 135.363281 C 122.21875 134.945312 121.84375 134.492188 121.515625 134 C 121.1875 133.507812 120.910156 132.988281 120.683594 132.445312 C 120.457031 131.898438 120.289062 131.335938 120.171875 130.753906 C 120.058594 130.175781 120 129.589844 120 129 C 120 128.410156 120.058594 127.824219 120.171875 127.246094 C 120.289062 126.664062 120.457031 126.101562 120.683594 125.554688 C 120.910156 125.011719 121.1875 124.492188 121.515625 124 C 121.84375 123.507812 122.21875 123.054688 122.636719 122.636719 C 123.054688 122.21875 123.507812 121.84375 124 121.515625 C 124.492188 121.1875 125.011719 120.910156 125.554688 120.683594 C 126.101562 120.457031 126.664062 120.289062 127.246094 120.171875 C 127.824219 120.058594 128.410156 120 129 120 C 129.589844 120 130.175781 120.058594 130.753906 120.171875 C 131.335938 120.289062 131.898438 120.457031 132.445312 120.683594 C 132.988281 120.910156 133.507812 121.1875 134 121.515625 C 134.492188 121.84375 134.945312 122.21875 135.363281 122.636719 C 135.78125 123.054688 136.15625 123.507812 136.484375 124 C 136.8125 124.492188 137.089844 125.011719 137.316406 125.554688 C 137.542969 126.101562 137.710938 126.664062 137.828125 127.246094 C 137.941406 127.824219 138 128.410156 138 129 C 138 129.589844 137.941406 130.175781 137.828125 130.753906 C 137.710938 131.335938 137.542969 131.898438 137.316406 132.445312 C 137.089844 132.988281 136.8125 133.507812 136.484375 134 C 136.15625 134.492188 135.78125 134.945312 135.363281 135.363281 C 134.945312 135.78125 134.492188 136.15625 134 136.484375 C 133.507812 136.8125 132.988281 137.089844 132.445312 137.316406 C 131.898438 137.542969 131.335938 137.710938 130.753906 137.828125 C 130.175781 137.941406 129.589844 138 129 138 Z M 129 108 C 128.410156 108 127.824219 107.941406 127.246094 107.828125 C 126.664062 107.710938 126.101562 107.542969 125.554688 107.316406 C 125.011719 107.089844 124.492188 106.8125 124 106.484375 C 123.507812 106.15625 123.054688 105.78125 122.636719 105.363281 C 122.21875 104.945312 121.84375 104.492188 121.515625 104 C 121.1875 103.507812 120.910156 102.988281 120.683594 102.445312 C 120.457031 101.898438 120.289062 101.335938 120.171875 100.753906 C 120.058594 100.175781 120 99.589844 120 99 C 120 98.410156 120.058594 97.824219 120.171875 97.246094 C 120.289062 96.664062 120.457031 96.101562 120.683594 95.554688 C 120.910156 95.011719 121.1875 94.492188 121.515625 94 C 121.84375 93.507812 122.21875 93.054688 122.636719 92.636719 C 123.054688 92.21875 123.507812 91.84375 124 91.515625 C 124.492188 91.1875 125.011719 90.910156 125.554688 90.683594 C 126.101562 90.457031 126.664062 90.289062 127.246094 90.171875 C 127.824219 90.058594 128.410156 90 129 90 C 129.589844 90 130.175781 90.058594 130.753906 90.171875 C 131.335938 90.289062 131.898438 90.457031 132.445312 90.683594 C 132.988281 90.910156 133.507812 91.1875 134 91.515625 C 134.492188 91.84375 134.945312 92.21875 135.363281 92.636719 C 135.78125 93.054688 136.15625 93.507812 136.484375 94 C 136.8125 94.492188 137.089844 95.011719 137.316406 95.554688 C 137.542969 96.101562 137.710938 96.664062 137.828125 97.246094 C 137.941406 97.824219 138 98.410156 138 99 C 138 99.589844 137.941406 100.175781 137.828125 100.753906 C 137.710938 101.335938 137.542969 101.898438 137.316406 102.445312 C 137.089844 102.988281 136.8125 103.507812 136.484375 104 C 136.15625 104.492188 135.78125 104.945312 135.363281 105.363281 C 134.945312 105.78125 134.492188 106.15625 134 106.484375 C 133.507812 106.8125 132.988281 107.089844 132.445312 107.316406 C 131.898438 107.542969 131.335938 107.710938 130.753906 107.828125 C 130.175781 107.941406 129.589844 108 129 108 Z M 156 60 L 36 60 L 36 36 L 54 36 L 54 42 C 54 42.394531 54.039062 42.785156 54.117188 43.171875 C 54.191406 43.558594 54.304688 43.933594 54.457031 44.296875 C 54.609375 44.660156 54.792969 45.003906 55.011719 45.332031 C 55.230469 45.660156 55.480469 45.964844 55.757812 46.242188 C 56.035156 46.519531 56.339844 46.769531 56.667969 46.988281 C 56.992188 47.207031 57.339844 47.390625 57.703125 47.542969 C 58.066406 47.695312 58.441406 47.808594 58.828125 47.882812 C 59.214844 47.960938 59.605469 48 60 48 C 60.394531 48 60.785156 47.960938 61.171875 47.882812 C 61.558594 47.808594 61.933594 47.695312 62.296875 47.542969 C 62.660156 47.390625 63.003906 47.207031 63.332031 46.988281 C 63.660156 46.769531 63.964844 46.519531 64.242188 46.242188 C 64.519531 45.964844 64.769531 45.660156 64.988281 45.332031 C 65.207031 45.003906 65.390625 44.660156 65.542969 44.296875 C 65.695312 43.933594 65.808594 43.558594 65.882812 43.171875 C 65.960938 42.785156 66 42.394531 66 42 L 66 36 L 126 36 L 126 42 C 126 42.394531 126.039062 42.785156 126.117188 43.171875 C 126.191406 43.558594 126.304688 43.933594 126.457031 44.296875 C 126.609375 44.660156 126.792969 45.003906 127.011719 45.332031 C 127.230469 45.660156 127.480469 45.964844 127.757812 46.242188 C 128.035156 46.519531 128.339844 46.769531 128.667969 46.988281 C 128.992188 47.207031 129.339844 47.390625 129.703125 47.542969 C 130.066406 47.695312 130.441406 47.808594 130.828125 47.882812 C 131.214844 47.960938 131.605469 48 132 48 C 132.394531 48 132.785156 47.960938 133.171875 47.882812 C 133.558594 47.808594 133.933594 47.695312 134.296875 47.542969 C 134.660156 47.390625 135.003906 47.207031 135.332031 46.988281 C 135.660156 46.769531 135.964844 46.519531 136.242188 46.242188 C 136.519531 45.964844 136.769531 45.660156 136.988281 45.332031 C 137.207031 45.003906 137.390625 44.660156 137.542969 44.296875 C 137.695312 43.933594 137.808594 43.558594 137.882812 43.171875 C 137.960938 42.785156 138 42.394531 138 42 L 138 36 L 156 36 Z M 156 60 " fill-opacity="1" fill-rule="nonzero"/></svg>